<svg id="visual" viewBox="0 0 900 600" width="900" height="600" xmlns="http://www.w3.org/2000/svg" xmlns:xlink="http://www.w3.org/1999/xlink" version="1.1"><g stroke-width="1" stroke-linejoin="bevel"><path d="M449 316L419 330.1L435 345Z" fill="#22064c" stroke="#284177"></path><path d="M419 330.1L414 384.9L435 345Z" fill="#4078c5" stroke="#284177"></path><path d="M414 384.9L425 388.7L435 345Z" fill="#344792" stroke="#284177"></path><path d="M435 345L509 371L449 316Z" fill="#3c67b4" stroke="#284177"></path><path d="M376 288.3L375 292.9L419 330.1Z" fill="#4facf7" stroke="#284177"></path><path d="M419 330.1L329 326.7L414 384.9Z" fill="#4489d6" stroke="#284177"></path><path d="M449 316L376 288.3L419 330.1Z" fill="#3c67b4" stroke="#284177"></path><path d="M414 384.9L423 402.9L425 388.7Z" fill="#2c276f" stroke="#284177"></path><path d="M425 388.7L476 394.9L435 345Z" fill="#3857a3" stroke="#284177"></path><path d="M423 402.9L476 394.9L425 388.7Z" fill="#313780" stroke="#284177"></path><path d="M476 394.9L509 371L435 345Z" fill="#27185d" stroke="#284177"></path><path d="M400 457.7L425 411.9L423 402.9Z" fill="#4078c5" stroke="#284177"></path><path d="M423 402.9L425 411.9L476 394.9Z" fill="#27185d" stroke="#284177"></path><path d="M400 457.7L423 402.9L414 384.9Z" fill="#2c276f" stroke="#284177"></path><path d="M476 394.9L508 376.6L509 371Z" fill="#313780" stroke="#284177"></path><path d="M525 260L427 240.4L449 316Z" fill="#27185d" stroke="#284177"></path><path d="M449 316L427 240.4L376 288.3Z" fill="#27185d" stroke="#284177"></path><path d="M502 399.6L502 393.7L476 394.9Z" fill="#2c276f" stroke="#284177"></path><path d="M476 394.9L502 393.7L508 376.6Z" fill="#3857a3" stroke="#284177"></path><path d="M427 240.4L392 245.1L376 288.3Z" fill="#4078c5" stroke="#284177"></path><path d="M546 359.7L529 298L509 371Z" fill="#3857a3" stroke="#284177"></path><path d="M509 371L529 298L449 316Z" fill="#499ae7" stroke="#284177"></path><path d="M488 413.7L502 399.6L476 394.9Z" fill="#2c276f" stroke="#284177"></path><path d="M502 393.7L536 400.4L508 376.6Z" fill="#313780" stroke="#284177"></path><path d="M536 400.4L546 359.7L509 371Z" fill="#4facf7" stroke="#284177"></path><path d="M443 432.6L488 413.7L476 394.9Z" fill="#2c276f" stroke="#284177"></path><path d="M425 411.9L443 432.6L476 394.9Z" fill="#313780" stroke="#284177"></path><path d="M329 292.1L329 326.7L375 292.9Z" fill="#499ae7" stroke="#284177"></path><path d="M375 292.9L329 326.7L419 330.1Z" fill="#344792" stroke="#284177"></path><path d="M425 411.9L400 457.7L443 432.6Z" fill="#4facf7" stroke="#284177"></path><path d="M329 292.1L375 292.9L376 288.3Z" fill="#27185d" stroke="#284177"></path><path d="M529 298L525 260L449 316Z" fill="#27185d" stroke="#284177"></path><path d="M331 255.1L329 292.1L376 288.3Z" fill="#27185d" stroke="#284177"></path><path d="M551 357.6L546 359.7L558 383.6Z" fill="#313780" stroke="#284177"></path><path d="M536 400.4L509 371L508 376.6Z" fill="#313780" stroke="#284177"></path><path d="M529 298L542 252.1L525 260Z" fill="#4489d6" stroke="#284177"></path><path d="M536 400.4L502 393.7L502 399.6Z" fill="#344792" stroke="#284177"></path><path d="M546 359.7L551 357.6L529 298Z" fill="#3857a3" stroke="#284177"></path><path d="M329 326.7L333 389.6L414 384.9Z" fill="#313780" stroke="#284177"></path><path d="M559 429.4L536 400.4L488 413.7Z" fill="#4078c5" stroke="#284177"></path><path d="M488 413.7L536 400.4L502 399.6Z" fill="#22064c" stroke="#284177"></path><path d="M392 245.1L331 255.1L376 288.3Z" fill="#313780" stroke="#284177"></path><path d="M331 255.1L325 264.3L329 292.1Z" fill="#4489d6" stroke="#284177"></path><path d="M329 292.1L306 283.3L329 326.7Z" fill="#313780" stroke="#284177"></path><path d="M329 326.7L283 341L333 389.6Z" fill="#3c67b4" stroke="#284177"></path><path d="M325 264.3L317 278L329 292.1Z" fill="#3c67b4" stroke="#284177"></path><path d="M589 287.3L542 252.1L529 298Z" fill="#4facf7" stroke="#284177"></path><path d="M525 260L452 198.4L427 240.4Z" fill="#344792" stroke="#284177"></path><path d="M532 234.4L452 198.4L525 260Z" fill="#344792" stroke="#284177"></path><path d="M427 240.4L432 180.6L392 245.1Z" fill="#499ae7" stroke="#284177"></path><path d="M392 245.1L367 191.3L331 255.1Z" fill="#22064c" stroke="#284177"></path><path d="M542 252.1L532 234.4L525 260Z" fill="#4facf7" stroke="#284177"></path><path d="M536 400.4L558 383.6L546 359.7Z" fill="#3c67b4" stroke="#284177"></path><path d="M551 357.6L588 337.9L529 298Z" fill="#4489d6" stroke="#284177"></path><path d="M333 389.6L400 457.7L414 384.9Z" fill="#2c276f" stroke="#284177"></path><path d="M545 478.6L559 429.4L488 413.7Z" fill="#3c67b4" stroke="#284177"></path><path d="M263 242.4L306 283.3L325 264.3Z" fill="#27185d" stroke="#284177"></path><path d="M325 264.3L306 283.3L317 278Z" fill="#344792" stroke="#284177"></path><path d="M317 278L306 283.3L329 292.1Z" fill="#313780" stroke="#284177"></path><path d="M453 163.6L432 180.6L452 198.4Z" fill="#22064c" stroke="#284177"></path><path d="M452 198.4L432 180.6L427 240.4Z" fill="#2c276f" stroke="#284177"></path><path d="M558 383.6L588 337.9L551 357.6Z" fill="#2c276f" stroke="#284177"></path><path d="M432 180.6L367 191.3L392 245.1Z" fill="#4078c5" stroke="#284177"></path><path d="M331 255.1L263 242.4L325 264.3Z" fill="#3c67b4" stroke="#284177"></path><path d="M306 283.3L283 341L329 326.7Z" fill="#3c67b4" stroke="#284177"></path><path d="M333 389.6L350 461.6L400 457.7Z" fill="#313780" stroke="#284177"></path><path d="M283 341L301 401.4L333 389.6Z" fill="#4facf7" stroke="#284177"></path><path d="M588 337.9L589 287.3L529 298Z" fill="#3c67b4" stroke="#284177"></path><path d="M542 252.1L569 232.1L532 234.4Z" fill="#4078c5" stroke="#284177"></path><path d="M313 432.7L350 461.6L333 389.6Z" fill="#4078c5" stroke="#284177"></path><path d="M545 478.6L488 413.7L481 517.4Z" fill="#4078c5" stroke="#284177"></path><path d="M536 400.4L559 429.4L558 383.6Z" fill="#3857a3" stroke="#284177"></path><path d="M558 383.6L618 371.7L588 337.9Z" fill="#499ae7" stroke="#284177"></path><path d="M301 401.4L313 432.7L333 389.6Z" fill="#344792" stroke="#284177"></path><path d="M350 461.6L378 479.4L400 457.7Z" fill="#344792" stroke="#284177"></path><path d="M400 457.7L481 517.4L443 432.6Z" fill="#2c276f" stroke="#284177"></path><path d="M570 202.4L505 180.3L532 234.4Z" fill="#499ae7" stroke="#284177"></path><path d="M532 234.4L505 180.3L452 198.4Z" fill="#499ae7" stroke="#284177"></path><path d="M589 287.3L569 232.1L542 252.1Z" fill="#3c67b4" stroke="#284177"></path><path d="M505 180.3L453 163.6L452 198.4Z" fill="#499ae7" stroke="#284177"></path><path d="M432 180.6L382 113.6L367 191.3Z" fill="#3857a3" stroke="#284177"></path><path d="M588 337.9L601 302.9L589 287.3Z" fill="#4078c5" stroke="#284177"></path><path d="M611 204.1L570 202.4L569 232.1Z" fill="#3c67b4" stroke="#284177"></path><path d="M645 328L601 302.9L588 337.9Z" fill="#4489d6" stroke="#284177"></path><path d="M505 180.3L459 155.7L453 163.6Z" fill="#27185d" stroke="#284177"></path><path d="M453 163.6L446 109.9L432 180.6Z" fill="#3857a3" stroke="#284177"></path><path d="M325 139.7L332 185.4L367 191.3Z" fill="#3857a3" stroke="#284177"></path><path d="M367 191.3L332 185.4L331 255.1Z" fill="#3857a3" stroke="#284177"></path><path d="M226 283.1L232 331.9L283 341Z" fill="#2c276f" stroke="#284177"></path><path d="M313 432.7L310 457.6L350 461.6Z" fill="#313780" stroke="#284177"></path><path d="M350 461.6L381 502.3L378 479.4Z" fill="#313780" stroke="#284177"></path><path d="M290 450.3L310 457.6L313 432.7Z" fill="#2c276f" stroke="#284177"></path><path d="M290 450.3L313 432.7L301 401.4Z" fill="#22064c" stroke="#284177"></path><path d="M313 491.1L381 502.3L350 461.6Z" fill="#4489d6" stroke="#284177"></path><path d="M378 479.4L381 502.3L400 457.7Z" fill="#4489d6" stroke="#284177"></path><path d="M611 204.1L569 232.1L589 287.3Z" fill="#4facf7" stroke="#284177"></path><path d="M569 232.1L570 202.4L532 234.4Z" fill="#22064c" stroke="#284177"></path><path d="M505 180.3L493 144.3L459 155.7Z" fill="#3857a3" stroke="#284177"></path><path d="M481 517.4L488 413.7L443 432.6Z" fill="#3c67b4" stroke="#284177"></path><path d="M559 429.4L618 371.7L558 383.6Z" fill="#313780" stroke="#284177"></path><path d="M625 448.6L618 371.7L559 429.4Z" fill="#2c276f" stroke="#284177"></path><path d="M227 403.4L290 450.3L301 401.4Z" fill="#3c67b4" stroke="#284177"></path><path d="M346 544.4L391 522.4L381 502.3Z" fill="#313780" stroke="#284177"></path><path d="M558 172.4L534 163.3L505 180.3Z" fill="#3c67b4" stroke="#284177"></path><path d="M509 149.3L493 144.3L505 180.3Z" fill="#3857a3" stroke="#284177"></path><path d="M459 155.7L446 109.9L453 163.6Z" fill="#22064c" stroke="#284177"></path><path d="M534 163.3L509 149.3L505 180.3Z" fill="#4489d6" stroke="#284177"></path><path d="M332 185.4L263 242.4L331 255.1Z" fill="#313780" stroke="#284177"></path><path d="M283 341L227 403.4L301 401.4Z" fill="#22064c" stroke="#284177"></path><path d="M391 522.4L481 517.4L400 457.7Z" fill="#344792" stroke="#284177"></path><path d="M570 202.4L558 172.4L505 180.3Z" fill="#4489d6" stroke="#284177"></path><path d="M534 163.3L557 154.7L509 149.3Z" fill="#3857a3" stroke="#284177"></path><path d="M313 491.1L350 461.6L310 457.6Z" fill="#2c276f" stroke="#284177"></path><path d="M381 502.3L391 522.4L400 457.7Z" fill="#344792" stroke="#284177"></path><path d="M473 61.7L467 129.6L493 144.3Z" fill="#499ae7" stroke="#284177"></path><path d="M493 144.3L467 129.6L459 155.7Z" fill="#3c67b4" stroke="#284177"></path><path d="M226 283.1L283 341L306 283.3Z" fill="#4489d6" stroke="#284177"></path><path d="M286 490.1L313 491.1L310 457.6Z" fill="#22064c" stroke="#284177"></path><path d="M592 502.1L575 482.4L558 531.1Z" fill="#27185d" stroke="#284177"></path><path d="M545 478.6L575 482.4L559 429.4Z" fill="#499ae7" stroke="#284177"></path><path d="M674 327.1L645 328L702 373Z" fill="#3c67b4" stroke="#284177"></path><path d="M618 371.7L645 328L588 337.9Z" fill="#499ae7" stroke="#284177"></path><path d="M646 215.4L611 204.1L589 287.3Z" fill="#344792" stroke="#284177"></path><path d="M634 156.7L557 154.7L558 172.4Z" fill="#4facf7" stroke="#284177"></path><path d="M611 204.1L558 172.4L570 202.4Z" fill="#499ae7" stroke="#284177"></path><path d="M558 172.4L557 154.7L534 163.3Z" fill="#499ae7" stroke="#284177"></path><path d="M473 61.7L446 109.9L467 129.6Z" fill="#4489d6" stroke="#284177"></path><path d="M391 522.4L468 538.3L481 517.4Z" fill="#344792" stroke="#284177"></path><path d="M558 531.1L575 482.4L545 478.6Z" fill="#3c67b4" stroke="#284177"></path><path d="M653 291.9L589 287.3L601 302.9Z" fill="#4078c5" stroke="#284177"></path><path d="M263 242.4L226 283.1L306 283.3Z" fill="#2c276f" stroke="#284177"></path><path d="M567 111.9L493 144.3L509 149.3Z" fill="#4489d6" stroke="#284177"></path><path d="M467 129.6L446 109.9L459 155.7Z" fill="#344792" stroke="#284177"></path><path d="M382 113.6L325 139.7L367 191.3Z" fill="#27185d" stroke="#284177"></path><path d="M332 185.4L285 166.6L263 242.4Z" fill="#3c67b4" stroke="#284177"></path><path d="M171 233.3L174 280L226 283.1Z" fill="#2c276f" stroke="#284177"></path><path d="M645 328L653 291.9L601 302.9Z" fill="#313780" stroke="#284177"></path><path d="M446 109.9L382 113.6L432 180.6Z" fill="#313780" stroke="#284177"></path><path d="M325 139.7L285 166.6L332 185.4Z" fill="#27185d" stroke="#284177"></path><path d="M253 509.3L286 490.1L290 450.3Z" fill="#27185d" stroke="#284177"></path><path d="M290 450.3L286 490.1L310 457.6Z" fill="#344792" stroke="#284177"></path><path d="M313 491.1L346 544.4L381 502.3Z" fill="#4facf7" stroke="#284177"></path><path d="M216 371L283 341L232 331.9Z" fill="#4078c5" stroke="#284177"></path><path d="M216 371L227 403.4L283 341Z" fill="#22064c" stroke="#284177"></path><path d="M575 482.4L625 448.6L559 429.4Z" fill="#3857a3" stroke="#284177"></path><path d="M645 328L674 327.1L653 291.9Z" fill="#4489d6" stroke="#284177"></path><path d="M209 352L216 371L232 331.9Z" fill="#4078c5" stroke="#284177"></path><path d="M216 371L216 381.7L227 403.4Z" fill="#3c67b4" stroke="#284177"></path><path d="M197 301.9L210 343.7L232 331.9Z" fill="#22064c" stroke="#284177"></path><path d="M156 393.6L176 409.6L216 381.7Z" fill="#4078c5" stroke="#284177"></path><path d="M423 575.3L468 553.3L468 538.3Z" fill="#313780" stroke="#284177"></path><path d="M468 538.3L468 553.3L481 517.4Z" fill="#313780" stroke="#284177"></path><path d="M423 575.3L468 538.3L391 522.4Z" fill="#344792" stroke="#284177"></path><path d="M592 502.1L600 486.4L575 482.4Z" fill="#4489d6" stroke="#284177"></path><path d="M575 482.4L600 486.4L625 448.6Z" fill="#3857a3" stroke="#284177"></path><path d="M210 343.7L209 352L232 331.9Z" fill="#27185d" stroke="#284177"></path><path d="M473 61.7L432 96.7L446 109.9Z" fill="#3857a3" stroke="#284177"></path><path d="M446 109.9L432 96.7L382 113.6Z" fill="#4489d6" stroke="#284177"></path><path d="M558 531.1L545 478.6L481 517.4Z" fill="#313780" stroke="#284177"></path><path d="M716 407.4L700 389.6L712 444.7Z" fill="#313780" stroke="#284177"></path><path d="M337 544.3L346 544.4L313 491.1Z" fill="#313780" stroke="#284177"></path><path d="M468 553.3L558 531.1L481 517.4Z" fill="#4489d6" stroke="#284177"></path><path d="M702 373L645 328L618 371.7Z" fill="#3c67b4" stroke="#284177"></path><path d="M653 291.9L646 215.4L589 287.3Z" fill="#3857a3" stroke="#284177"></path><path d="M696 264L646 215.4L653 291.9Z" fill="#22064c" stroke="#284177"></path><path d="M634 156.7L567 111.9L557 154.7Z" fill="#2c276f" stroke="#284177"></path><path d="M301 524.4L337 544.3L313 491.1Z" fill="#3857a3" stroke="#284177"></path><path d="M382 600L423 575.3L391 522.4Z" fill="#2c276f" stroke="#284177"></path><path d="M253 509.3L301 524.4L286 490.1Z" fill="#2c276f" stroke="#284177"></path><path d="M286 490.1L301 524.4L313 491.1Z" fill="#313780" stroke="#284177"></path><path d="M179 291.9L197 301.9L176 283.1Z" fill="#22064c" stroke="#284177"></path><path d="M226 283.1L197 301.9L232 331.9Z" fill="#2c276f" stroke="#284177"></path><path d="M210 343.7L129 320.7L209 352Z" fill="#313780" stroke="#284177"></path><path d="M176 409.6L193 421.7L216 381.7Z" fill="#4facf7" stroke="#284177"></path><path d="M251 83.7L242 175.4L285 166.6Z" fill="#27185d" stroke="#284177"></path><path d="M285 166.6L242 175.4L263 242.4Z" fill="#313780" stroke="#284177"></path><path d="M303 97.7L285 166.6L325 139.7Z" fill="#313780" stroke="#284177"></path><path d="M429 600L423 575.3L382 600Z" fill="#4489d6" stroke="#284177"></path><path d="M553 588.1L567 546.3L558 531.1Z" fill="#499ae7" stroke="#284177"></path><path d="M702 373L688 322.7L674 327.1Z" fill="#22064c" stroke="#284177"></path><path d="M674 327.1L694 299.9L653 291.9Z" fill="#4facf7" stroke="#284177"></path><path d="M634 156.7L558 172.4L611 204.1Z" fill="#3857a3" stroke="#284177"></path><path d="M557 154.7L567 111.9L509 149.3Z" fill="#3c67b4" stroke="#284177"></path><path d="M504 597.1L558 531.1L468 553.3Z" fill="#499ae7" stroke="#284177"></path><path d="M558 531.1L567 546.3L592 502.1Z" fill="#4078c5" stroke="#284177"></path><path d="M700 389.6L618 371.7L625 448.6Z" fill="#2c276f" stroke="#284177"></path><path d="M183 458.4L253 509.3L290 450.3Z" fill="#2c276f" stroke="#284177"></path><path d="M367 615.1L346 544.4L337 544.3Z" fill="#4facf7" stroke="#284177"></path><path d="M183 458.4L290 450.3L227 403.4Z" fill="#2c276f" stroke="#284177"></path><path d="M688 322.7L694 299.9L674 327.1Z" fill="#22064c" stroke="#284177"></path><path d="M176 283.1L197 301.9L226 283.1Z" fill="#27185d" stroke="#284177"></path><path d="M197 301.9L175 298.9L210 343.7Z" fill="#344792" stroke="#284177"></path><path d="M216 381.7L193 421.7L227 403.4Z" fill="#27185d" stroke="#284177"></path><path d="M216 381.7L216 371L156 393.6Z" fill="#344792" stroke="#284177"></path><path d="M646 215.4L634 156.7L611 204.1Z" fill="#4489d6" stroke="#284177"></path><path d="M655 162.3L634 156.7L646 215.4Z" fill="#27185d" stroke="#284177"></path><path d="M176 283.1L175 298.9L179 291.9Z" fill="#313780" stroke="#284177"></path><path d="M179 291.9L175 298.9L197 301.9Z" fill="#4078c5" stroke="#284177"></path><path d="M174 280L176 283.1L226 283.1Z" fill="#27185d" stroke="#284177"></path><path d="M334 65.6L325 139.7L382 113.6Z" fill="#27185d" stroke="#284177"></path><path d="M334 65.6L303 97.7L325 139.7Z" fill="#27185d" stroke="#284177"></path><path d="M171 233.3L226 283.1L263 242.4Z" fill="#4facf7" stroke="#284177"></path><path d="M176 283.1L174 280L175 298.9Z" fill="#4078c5" stroke="#284177"></path><path d="M694 299.9L696 264L653 291.9Z" fill="#4078c5" stroke="#284177"></path><path d="M567 111.9L473 61.7L493 144.3Z" fill="#3857a3" stroke="#284177"></path><path d="M419 13.9L334 65.6L382 113.6Z" fill="#313780" stroke="#284177"></path><path d="M625 448.6L712 444.7L700 389.6Z" fill="#499ae7" stroke="#284177"></path><path d="M700 389.6L702 373L618 371.7Z" fill="#4facf7" stroke="#284177"></path><path d="M688 322.7L730 325.7L694 299.9Z" fill="#4489d6" stroke="#284177"></path><path d="M694 299.9L702 274.1L696 264Z" fill="#3c67b4" stroke="#284177"></path><path d="M625 448.6L684 509.3L712 444.7Z" fill="#27185d" stroke="#284177"></path><path d="M730 325.7L702 274.1L694 299.9Z" fill="#4078c5" stroke="#284177"></path><path d="M685 190.1L655 162.3L646 215.4Z" fill="#3857a3" stroke="#284177"></path><path d="M382 600L391 522.4L346 544.4Z" fill="#4078c5" stroke="#284177"></path><path d="M423 575.3L460 600L468 553.3Z" fill="#3857a3" stroke="#284177"></path><path d="M382 600L346 544.4L367 615.1Z" fill="#3857a3" stroke="#284177"></path><path d="M156 393.6L216 371L209 352Z" fill="#22064c" stroke="#284177"></path><path d="M193 421.7L183 458.4L227 403.4Z" fill="#3857a3" stroke="#284177"></path><path d="M156 393.6L209 352L149 385.6Z" fill="#22064c" stroke="#284177"></path><path d="M429 600L460 600L423 575.3Z" fill="#4489d6" stroke="#284177"></path><path d="M685 190.1L646 215.4L696 264Z" fill="#344792" stroke="#284177"></path><path d="M634 156.7L613 90.7L567 111.9Z" fill="#344792" stroke="#284177"></path><path d="M655 162.3L648 151.7L634 156.7Z" fill="#4facf7" stroke="#284177"></path><path d="M567 111.9L571 67.6L473 61.7Z" fill="#2c276f" stroke="#284177"></path><path d="M367 615.1L337 544.3L299 600Z" fill="#313780" stroke="#284177"></path><path d="M460 600L504 597.1L468 553.3Z" fill="#499ae7" stroke="#284177"></path><path d="M329 53.9L334 65.6L379 0Z" fill="#344792" stroke="#284177"></path><path d="M158 200.4L171 233.3L242 175.4Z" fill="#4078c5" stroke="#284177"></path><path d="M242 175.4L171 233.3L263 242.4Z" fill="#22064c" stroke="#284177"></path><path d="M149 385.6L209 352L129 320.7Z" fill="#2c276f" stroke="#284177"></path><path d="M266 82.6L285 166.6L303 97.7Z" fill="#3c67b4" stroke="#284177"></path><path d="M687 183.6L685 190.1L728 206.4Z" fill="#4489d6" stroke="#284177"></path><path d="M655 162.3L667 115.6L648 151.7Z" fill="#4489d6" stroke="#284177"></path><path d="M176 409.6L183 458.4L193 421.7Z" fill="#2c276f" stroke="#284177"></path><path d="M504 597.1L553 588.1L558 531.1Z" fill="#313780" stroke="#284177"></path><path d="M667 521.3L600 486.4L592 502.1Z" fill="#313780" stroke="#284177"></path><path d="M210 343.7L175 298.9L129 320.7Z" fill="#4facf7" stroke="#284177"></path><path d="M176 409.6L150 404.9L183 458.4Z" fill="#22064c" stroke="#284177"></path><path d="M429 600L432 616.1L460 600Z" fill="#4078c5" stroke="#284177"></path><path d="M460 600L432 616.1L504 597.1Z" fill="#313780" stroke="#284177"></path><path d="M504 597.1L551 600L553 588.1Z" fill="#27185d" stroke="#284177"></path><path d="M382 600L432 616.1L429 600Z" fill="#2c276f" stroke="#284177"></path><path d="M728 206.4L685 190.1L696 264Z" fill="#4facf7" stroke="#284177"></path><path d="M685 190.1L687 183.6L655 162.3Z" fill="#4facf7" stroke="#284177"></path><path d="M700 389.6L716 407.4L702 373Z" fill="#4489d6" stroke="#284177"></path><path d="M702 373L730 325.7L688 322.7Z" fill="#344792" stroke="#284177"></path><path d="M625 448.6L600 486.4L667 521.3Z" fill="#4078c5" stroke="#284177"></path><path d="M286 72.9L282 78.7L303 97.7Z" fill="#313780" stroke="#284177"></path><path d="M129 320.7L175 298.9L119 291.1Z" fill="#2c276f" stroke="#284177"></path><path d="M156 393.6L150 404.9L176 409.6Z" fill="#3857a3" stroke="#284177"></path><path d="M613 90.7L634 156.7L648 151.7Z" fill="#4489d6" stroke="#284177"></path><path d="M613 90.7L571 67.6L567 111.9Z" fill="#4489d6" stroke="#284177"></path><path d="M757 345.9L730 325.7L702 373Z" fill="#2c276f" stroke="#284177"></path><path d="M702 274.1L740 263L696 264Z" fill="#313780" stroke="#284177"></path><path d="M419 13.9L382 113.6L432 96.7Z" fill="#3857a3" stroke="#284177"></path><path d="M334 65.6L286 72.9L303 97.7Z" fill="#2c276f" stroke="#284177"></path><path d="M432 616.1L551 600L504 597.1Z" fill="#499ae7" stroke="#284177"></path><path d="M667 521.3L592 502.1L611 599.1Z" fill="#3857a3" stroke="#284177"></path><path d="M299 600L337 544.3L301 524.4Z" fill="#344792" stroke="#284177"></path><path d="M382 600L367 615.1L432 616.1Z" fill="#3c67b4" stroke="#284177"></path><path d="M235 553.3L301 524.4L253 509.3Z" fill="#27185d" stroke="#284177"></path><path d="M654 95.9L613 90.7L648 151.7Z" fill="#4078c5" stroke="#284177"></path><path d="M329 53.9L286 72.9L334 65.6Z" fill="#4489d6" stroke="#284177"></path><path d="M282 78.7L266 82.6L303 97.7Z" fill="#499ae7" stroke="#284177"></path><path d="M149 385.6L150 404.9L156 393.6Z" fill="#4facf7" stroke="#284177"></path><path d="M275 59.7L266 82.6L282 78.7Z" fill="#3c67b4" stroke="#284177"></path><path d="M565 600L567 546.3L553 588.1Z" fill="#4489d6" stroke="#284177"></path><path d="M716 407.4L757 345.9L702 373Z" fill="#3857a3" stroke="#284177"></path><path d="M432 616.1L565 600L551 600Z" fill="#3857a3" stroke="#284177"></path><path d="M551 600L565 600L553 588.1Z" fill="#313780" stroke="#284177"></path><path d="M611 599.1L592 502.1L567 546.3Z" fill="#4facf7" stroke="#284177"></path><path d="M197 532.1L253 509.3L183 458.4Z" fill="#4078c5" stroke="#284177"></path><path d="M197 532.1L235 553.3L253 509.3Z" fill="#499ae7" stroke="#284177"></path><path d="M235 553.3L299 600L301 524.4Z" fill="#27185d" stroke="#284177"></path><path d="M192 119.6L158 200.4L242 175.4Z" fill="#22064c" stroke="#284177"></path><path d="M119 291.1L175 298.9L174 280Z" fill="#3c67b4" stroke="#284177"></path><path d="M275 59.7L251 83.7L266 82.6Z" fill="#27185d" stroke="#284177"></path><path d="M266 82.6L251 83.7L285 166.6Z" fill="#499ae7" stroke="#284177"></path><path d="M275 59.7L282 78.7L286 72.9Z" fill="#344792" stroke="#284177"></path><path d="M667 521.3L684 509.3L625 448.6Z" fill="#3857a3" stroke="#284177"></path><path d="M694 550.3L684 509.3L667 521.3Z" fill="#3c67b4" stroke="#284177"></path><path d="M130 237.4L174 280L171 233.3Z" fill="#4facf7" stroke="#284177"></path><path d="M149 385.6L108 363L150 404.9Z" fill="#22064c" stroke="#284177"></path><path d="M771 324.9L740 263L730 325.7Z" fill="#344792" stroke="#284177"></path><path d="M730 325.7L740 263L702 274.1Z" fill="#4facf7" stroke="#284177"></path><path d="M329 53.9L275 59.7L286 72.9Z" fill="#499ae7" stroke="#284177"></path><path d="M702 134.4L667 115.6L655 162.3Z" fill="#499ae7" stroke="#284177"></path><path d="M613 90.7L627 76.6L571 67.6Z" fill="#344792" stroke="#284177"></path><path d="M702 134.4L655 162.3L687 183.6Z" fill="#4078c5" stroke="#284177"></path><path d="M449 0L419 13.9L473 61.7Z" fill="#3c67b4" stroke="#284177"></path><path d="M473 61.7L419 13.9L432 96.7Z" fill="#4facf7" stroke="#284177"></path><path d="M329 53.9L344 0L275 59.7Z" fill="#4facf7" stroke="#284177"></path><path d="M160 521.3L197 532.1L183 458.4Z" fill="#3857a3" stroke="#284177"></path><path d="M235 553.3L254 600L299 600Z" fill="#3857a3" stroke="#284177"></path><path d="M654 95.9L627 76.6L613 90.7Z" fill="#2c276f" stroke="#284177"></path><path d="M470 0L449 0L473 61.7Z" fill="#313780" stroke="#284177"></path><path d="M740 263L728 206.4L696 264Z" fill="#344792" stroke="#284177"></path><path d="M432 616.1L598 600L565 600Z" fill="#3c67b4" stroke="#284177"></path><path d="M565 600L598 600L567 546.3Z" fill="#4facf7" stroke="#284177"></path><path d="M725 94.4L654 95.9L667 115.6Z" fill="#499ae7" stroke="#284177"></path><path d="M667 115.6L654 95.9L648 151.7Z" fill="#4078c5" stroke="#284177"></path><path d="M275 59.7L239 77.6L251 83.7Z" fill="#27185d" stroke="#284177"></path><path d="M251 83.7L220 92.9L242 175.4Z" fill="#2c276f" stroke="#284177"></path><path d="M239 77.6L220 92.9L251 83.7Z" fill="#4078c5" stroke="#284177"></path><path d="M117 244L130 237.4L123 223.3Z" fill="#3857a3" stroke="#284177"></path><path d="M158 200.4L130 237.4L171 233.3Z" fill="#313780" stroke="#284177"></path><path d="M130 237.4L119 291.1L174 280Z" fill="#3857a3" stroke="#284177"></path><path d="M129 320.7L108 363L149 385.6Z" fill="#313780" stroke="#284177"></path><path d="M220 92.9L192 119.6L242 175.4Z" fill="#4078c5" stroke="#284177"></path><path d="M771 324.9L757 345.9L771 346.7Z" fill="#3857a3" stroke="#284177"></path><path d="M771 346.7L757 345.9L793 400.9Z" fill="#4078c5" stroke="#284177"></path><path d="M655 600L611 599.1L598 600Z" fill="#4078c5" stroke="#284177"></path><path d="M598 600L611 599.1L567 546.3Z" fill="#2c276f" stroke="#284177"></path><path d="M247 600L254 600L235 553.3Z" fill="#499ae7" stroke="#284177"></path><path d="M299 600L254 600L367 615.1Z" fill="#4489d6" stroke="#284177"></path><path d="M470 0L473 61.7L487 0Z" fill="#4078c5" stroke="#284177"></path><path d="M419 13.9L379 0L334 65.6Z" fill="#22064c" stroke="#284177"></path><path d="M749 148.3L702 134.4L687 183.6Z" fill="#3857a3" stroke="#284177"></path><path d="M487 0L473 61.7L516 0Z" fill="#313780" stroke="#284177"></path><path d="M130 237.4L117 244L119 291.1Z" fill="#4facf7" stroke="#284177"></path><path d="M123 223.3L130 237.4L158 200.4Z" fill="#499ae7" stroke="#284177"></path><path d="M95 366.9L108 363L88 327.1Z" fill="#499ae7" stroke="#284177"></path><path d="M104 482.1L160 521.3L183 458.4Z" fill="#499ae7" stroke="#284177"></path><path d="M108 363L129 320.7L88 327.1Z" fill="#313780" stroke="#284177"></path><path d="M119 214.1L123 223.3L158 200.4Z" fill="#22064c" stroke="#284177"></path><path d="M238 600L247 600L235 553.3Z" fill="#22064c" stroke="#284177"></path><path d="M254 600L154 618.1L367 615.1Z" fill="#3c67b4" stroke="#284177"></path><path d="M516 0L473 61.7L571 67.6Z" fill="#344792" stroke="#284177"></path><path d="M449 0L379 0L419 13.9Z" fill="#3857a3" stroke="#284177"></path><path d="M201 0L179 64.7L239 77.6Z" fill="#4489d6" stroke="#284177"></path><path d="M757 345.9L771 324.9L730 325.7Z" fill="#4489d6" stroke="#284177"></path><path d="M740 263L763 220.3L728 206.4Z" fill="#3857a3" stroke="#284177"></path><path d="M728 206.4L749 148.3L687 183.6Z" fill="#4facf7" stroke="#284177"></path><path d="M757 345.9L716 407.4L776 417.4Z" fill="#3c67b4" stroke="#284177"></path><path d="M654 95.9L630 54.6L627 76.6Z" fill="#22064c" stroke="#284177"></path><path d="M627 76.6L630 54.6L571 67.6Z" fill="#313780" stroke="#284177"></path><path d="M703 26.7L630 54.6L654 95.9Z" fill="#344792" stroke="#284177"></path><path d="M776 417.4L716 407.4L712 444.7Z" fill="#3857a3" stroke="#284177"></path><path d="M163 600L238 600L235 553.3Z" fill="#313780" stroke="#284177"></path><path d="M247 600L154 618.1L254 600Z" fill="#4078c5" stroke="#284177"></path><path d="M105 190.4L119 214.1L158 200.4Z" fill="#4078c5" stroke="#284177"></path><path d="M123 223.3L88 210.3L117 244Z" fill="#27185d" stroke="#284177"></path><path d="M88 327.1L129 320.7L119 291.1Z" fill="#4078c5" stroke="#284177"></path><path d="M553 -3.1L516 0L571 67.6Z" fill="#3c67b4" stroke="#284177"></path><path d="M104 482.1L183 458.4L150 404.9Z" fill="#22064c" stroke="#284177"></path><path d="M197 532.1L163 600L235 553.3Z" fill="#4078c5" stroke="#284177"></path><path d="M611 599.1L675 570.1L667 521.3Z" fill="#499ae7" stroke="#284177"></path><path d="M684 509.3L736 489.6L712 444.7Z" fill="#499ae7" stroke="#284177"></path><path d="M379 0L344 0L329 53.9Z" fill="#2c276f" stroke="#284177"></path><path d="M675 570.1L694 550.3L667 521.3Z" fill="#3c67b4" stroke="#284177"></path><path d="M741 542.4L736 489.6L684 509.3Z" fill="#499ae7" stroke="#284177"></path><path d="M88 327.1L119 291.1L50 228.1Z" fill="#2c276f" stroke="#284177"></path><path d="M108 363L88 373.6L150 404.9Z" fill="#313780" stroke="#284177"></path><path d="M192 119.6L163 119.4L158 200.4Z" fill="#4078c5" stroke="#284177"></path><path d="M179 64.7L163 119.4L192 119.6Z" fill="#3857a3" stroke="#284177"></path><path d="M179 64.7L192 119.6L220 92.9Z" fill="#4facf7" stroke="#284177"></path><path d="M179 64.7L220 92.9L239 77.6Z" fill="#4078c5" stroke="#284177"></path><path d="M807 247.3L763 220.3L740 263Z" fill="#499ae7" stroke="#284177"></path><path d="M675 570.1L683 571.1L694 550.3Z" fill="#344792" stroke="#284177"></path><path d="M741 542.4L756 477.3L736 489.6Z" fill="#2c276f" stroke="#284177"></path><path d="M655 600L683 571.1L675 570.1Z" fill="#313780" stroke="#284177"></path><path d="M50 228.1L119 291.1L117 244Z" fill="#4489d6" stroke="#284177"></path><path d="M790 617.1L655 600L598 600Z" fill="#4078c5" stroke="#284177"></path><path d="M611 599.1L655 600L675 570.1Z" fill="#313780" stroke="#284177"></path><path d="M607 0L553 -3.1L571 67.6Z" fill="#4489d6" stroke="#284177"></path><path d="M516 0L498 -30.1L487 0Z" fill="#3857a3" stroke="#284177"></path><path d="M487 0L498 -30.1L470 0Z" fill="#344792" stroke="#284177"></path><path d="M470 0L498 -30.1L449 0Z" fill="#344792" stroke="#284177"></path><path d="M449 0L498 -30.1L379 0Z" fill="#344792" stroke="#284177"></path><path d="M379 0L498 -30.1L344 0Z" fill="#499ae7" stroke="#284177"></path><path d="M88 327.1L88 373.6L95 366.9Z" fill="#4078c5" stroke="#284177"></path><path d="M95 366.9L88 373.6L108 363Z" fill="#22064c" stroke="#284177"></path><path d="M756 477.3L776 417.4L712 444.7Z" fill="#344792" stroke="#284177"></path><path d="M771 346.7L825 324.1L771 324.9Z" fill="#4078c5" stroke="#284177"></path><path d="M741 542.4L684 509.3L694 550.3Z" fill="#4facf7" stroke="#284177"></path><path d="M736 489.6L756 477.3L712 444.7Z" fill="#4078c5" stroke="#284177"></path><path d="M111 134.7L105 190.4L158 200.4Z" fill="#4489d6" stroke="#284177"></path><path d="M119 214.1L88 210.3L123 223.3Z" fill="#3857a3" stroke="#284177"></path><path d="M805 182.1L767 184.6L763 220.3Z" fill="#2c276f" stroke="#284177"></path><path d="M763 220.3L767 184.6L728 206.4Z" fill="#22064c" stroke="#284177"></path><path d="M702 134.4L725 94.4L667 115.6Z" fill="#4facf7" stroke="#284177"></path><path d="M807 247.3L740 263L771 324.9Z" fill="#499ae7" stroke="#284177"></path><path d="M767 184.6L749 148.3L728 206.4Z" fill="#22064c" stroke="#284177"></path><path d="M553 -3.1L498 -30.1L516 0Z" fill="#313780" stroke="#284177"></path><path d="M787 433.7L793 400.9L776 417.4Z" fill="#4078c5" stroke="#284177"></path><path d="M776 417.4L793 400.9L757 345.9Z" fill="#313780" stroke="#284177"></path><path d="M61 450.4L104 482.1L150 404.9Z" fill="#313780" stroke="#284177"></path><path d="M160 521.3L163 600L197 532.1Z" fill="#4489d6" stroke="#284177"></path><path d="M756 477.3L787 433.7L776 417.4Z" fill="#4078c5" stroke="#284177"></path><path d="M62 210.3L88 210.3L105 190.4Z" fill="#4facf7" stroke="#284177"></path><path d="M105 190.4L88 210.3L119 214.1Z" fill="#344792" stroke="#284177"></path><path d="M236 0L239 77.6L275 59.7Z" fill="#3c67b4" stroke="#284177"></path><path d="M163 119.4L111 134.7L158 200.4Z" fill="#4078c5" stroke="#284177"></path><path d="M672 0L607 0L630 54.6Z" fill="#27185d" stroke="#284177"></path><path d="M630 54.6L607 0L571 67.6Z" fill="#4078c5" stroke="#284177"></path><path d="M553 -3.1L588 -28.1L498 -30.1Z" fill="#499ae7" stroke="#284177"></path><path d="M749 148.3L725 94.4L702 134.4Z" fill="#2c276f" stroke="#284177"></path><path d="M774 122.6L725 94.4L749 148.3Z" fill="#499ae7" stroke="#284177"></path><path d="M737 600L741 542.4L694 550.3Z" fill="#3857a3" stroke="#284177"></path><path d="M756 477.3L792 444.6L787 433.7Z" fill="#313780" stroke="#284177"></path><path d="M737 600L694 550.3L683 571.1Z" fill="#344792" stroke="#284177"></path><path d="M811 447.3L792 444.6L756 477.3Z" fill="#22064c" stroke="#284177"></path><path d="M787 433.7L811 447.3L793 400.9Z" fill="#499ae7" stroke="#284177"></path><path d="M146 73.9L111 134.7L163 119.4Z" fill="#27185d" stroke="#284177"></path><path d="M825 324.1L771 346.7L793 400.9Z" fill="#313780" stroke="#284177"></path><path d="M825 324.1L807 247.3L771 324.9Z" fill="#3c67b4" stroke="#284177"></path><path d="M767 184.6L774 122.6L749 148.3Z" fill="#499ae7" stroke="#284177"></path><path d="M344 0L236 0L275 59.7Z" fill="#499ae7" stroke="#284177"></path><path d="M179 64.7L146 73.9L163 119.4Z" fill="#499ae7" stroke="#284177"></path><path d="M498 -30.1L236 0L344 0Z" fill="#344792" stroke="#284177"></path><path d="M125 0L146 73.9L179 64.7Z" fill="#4489d6" stroke="#284177"></path><path d="M159 600L163 600L160 521.3Z" fill="#313780" stroke="#284177"></path><path d="M238 600L154 618.1L247 600Z" fill="#4facf7" stroke="#284177"></path><path d="M607 0L588 -28.1L553 -3.1Z" fill="#3857a3" stroke="#284177"></path><path d="M680 -15.1L588 -28.1L607 0Z" fill="#313780" stroke="#284177"></path><path d="M120 562.3L159 600L160 521.3Z" fill="#27185d" stroke="#284177"></path><path d="M163 600L154 618.1L238 600Z" fill="#499ae7" stroke="#284177"></path><path d="M867 394.4L825 324.1L793 400.9Z" fill="#3857a3" stroke="#284177"></path><path d="M50 228.1L62 210.3L0 226.3Z" fill="#499ae7" stroke="#284177"></path><path d="M111 134.7L62 210.3L105 190.4Z" fill="#344792" stroke="#284177"></path><path d="M88 210.3L50 228.1L117 244Z" fill="#4078c5" stroke="#284177"></path><path d="M25 448.7L61 450.4L88 373.6Z" fill="#2c276f" stroke="#284177"></path><path d="M88 373.6L61 450.4L150 404.9Z" fill="#2c276f" stroke="#284177"></path><path d="M798 538.1L811 447.3L756 477.3Z" fill="#27185d" stroke="#284177"></path><path d="M792 444.6L811 447.3L787 433.7Z" fill="#313780" stroke="#284177"></path><path d="M104 482.1L120 562.3L160 521.3Z" fill="#3857a3" stroke="#284177"></path><path d="M0 364.6L88 373.6L88 327.1Z" fill="#4078c5" stroke="#284177"></path><path d="M104 482.1L92 554.3L120 562.3Z" fill="#4489d6" stroke="#284177"></path><path d="M805 182.1L774 122.6L767 184.6Z" fill="#3857a3" stroke="#284177"></path><path d="M725 94.4L703 26.7L654 95.9Z" fill="#313780" stroke="#284177"></path><path d="M807 247.3L805 182.1L763 220.3Z" fill="#22064c" stroke="#284177"></path><path d="M855 158.4L805 182.1L881 205.3Z" fill="#3857a3" stroke="#284177"></path><path d="M14 254.3L50 228.1L0 226.3Z" fill="#2c276f" stroke="#284177"></path><path d="M62 210.3L50 228.1L88 210.3Z" fill="#3c67b4" stroke="#284177"></path><path d="M732 0L703 26.7L789 43.7Z" fill="#4078c5" stroke="#284177"></path><path d="M120 562.3L139 600L159 600Z" fill="#3857a3" stroke="#284177"></path><path d="M159 600L154 618.1L163 600Z" fill="#344792" stroke="#284177"></path><path d="M81 580.1L139 600L120 562.3Z" fill="#4078c5" stroke="#284177"></path><path d="M236 0L201 0L239 77.6Z" fill="#22064c" stroke="#284177"></path><path d="M82 -25.1L201 0L236 0Z" fill="#4489d6" stroke="#284177"></path><path d="M703 26.7L672 0L630 54.6Z" fill="#2c276f" stroke="#284177"></path><path d="M139 600L154 618.1L159 600Z" fill="#4078c5" stroke="#284177"></path><path d="M367 615.1L115 625.1L432 616.1Z" fill="#4489d6" stroke="#284177"></path><path d="M790 617.1L737 600L655 600Z" fill="#4489d6" stroke="#284177"></path><path d="M655 600L737 600L683 571.1Z" fill="#499ae7" stroke="#284177"></path><path d="M741 542.4L798 538.1L756 477.3Z" fill="#22064c" stroke="#284177"></path><path d="M805 182.1L785 115.9L774 122.6Z" fill="#4facf7" stroke="#284177"></path><path d="M774 122.6L785 115.9L725 94.4Z" fill="#4078c5" stroke="#284177"></path><path d="M36 484.4L92 554.3L104 482.1Z" fill="#4078c5" stroke="#284177"></path><path d="M139 600L115 625.1L154 618.1Z" fill="#4489d6" stroke="#284177"></path><path d="M790 617.1L747 600L737 600Z" fill="#344792" stroke="#284177"></path><path d="M737 600L747 600L741 542.4Z" fill="#3c67b4" stroke="#284177"></path><path d="M790 617.1L751 600L747 600Z" fill="#3c67b4" stroke="#284177"></path><path d="M747 600L751 600L741 542.4Z" fill="#3c67b4" stroke="#284177"></path><path d="M751 600L798 538.1L741 542.4Z" fill="#4078c5" stroke="#284177"></path><path d="M732 0L680 -15.1L703 26.7Z" fill="#2c276f" stroke="#284177"></path><path d="M703 26.7L680 -15.1L672 0Z" fill="#499ae7" stroke="#284177"></path><path d="M672 0L680 -15.1L607 0Z" fill="#3c67b4" stroke="#284177"></path><path d="M0 265.1L14 254.3L0 226.3Z" fill="#22064c" stroke="#284177"></path><path d="M50 228.1L14 254.3L88 327.1Z" fill="#4489d6" stroke="#284177"></path><path d="M0 376L25 448.7L88 373.6Z" fill="#344792" stroke="#284177"></path><path d="M61 450.4L36 484.4L104 482.1Z" fill="#3857a3" stroke="#284177"></path><path d="M25 448.7L36 484.4L61 450.4Z" fill="#27185d" stroke="#284177"></path><path d="M75 582.3L81 580.1L92 554.3Z" fill="#344792" stroke="#284177"></path><path d="M92 554.3L81 580.1L120 562.3Z" fill="#2c276f" stroke="#284177"></path><path d="M900 285.3L868 269L825 324.1Z" fill="#4489d6" stroke="#284177"></path><path d="M825 324.1L868 269L807 247.3Z" fill="#27185d" stroke="#284177"></path><path d="M805 182.1L819 115.4L785 115.9Z" fill="#3c67b4" stroke="#284177"></path><path d="M867 394.4L793 400.9L811 447.3Z" fill="#3857a3" stroke="#284177"></path><path d="M894 471.3L867 394.4L811 447.3Z" fill="#4facf7" stroke="#284177"></path><path d="M14 254.3L0 291.9L88 327.1Z" fill="#3857a3" stroke="#284177"></path><path d="M855 158.4L819 115.4L805 182.1Z" fill="#2c276f" stroke="#284177"></path><path d="M789 43.7L703 26.7L725 94.4Z" fill="#313780" stroke="#284177"></path><path d="M0 291.9L0 364.6L88 327.1Z" fill="#2c276f" stroke="#284177"></path><path d="M81 580.1L115 625.1L139 600Z" fill="#344792" stroke="#284177"></path><path d="M154 618.1L115 625.1L367 615.1Z" fill="#4facf7" stroke="#284177"></path><path d="M0 364.6L0 376L88 373.6Z" fill="#313780" stroke="#284177"></path><path d="M25 448.7L0 457.7L36 484.4Z" fill="#3857a3" stroke="#284177"></path><path d="M14 254.3L0 265.1L0 291.9Z" fill="#27185d" stroke="#284177"></path><path d="M0 226.3L62 210.3L0 167.6Z" fill="#3857a3" stroke="#284177"></path><path d="M62 210.3L111 134.7L0 167.6Z" fill="#22064c" stroke="#284177"></path><path d="M789 43.7L725 94.4L785 115.9Z" fill="#344792" stroke="#284177"></path><path d="M0 538.3L75 582.3L92 554.3Z" fill="#27185d" stroke="#284177"></path><path d="M81 580.1L75 582.3L115 625.1Z" fill="#4078c5" stroke="#284177"></path><path d="M0 376L6 438.7L25 448.7Z" fill="#4078c5" stroke="#284177"></path><path d="M36 484.4L9 503.6L92 554.3Z" fill="#2c276f" stroke="#284177"></path><path d="M60 75.9L111 134.7L146 73.9Z" fill="#2c276f" stroke="#284177"></path><path d="M881 205.3L805 182.1L807 247.3Z" fill="#313780" stroke="#284177"></path><path d="M808 48.9L789 43.7L785 115.9Z" fill="#3c67b4" stroke="#284177"></path><path d="M82 -25.1L125 0L201 0Z" fill="#22064c" stroke="#284177"></path><path d="M201 0L125 0L179 64.7Z" fill="#27185d" stroke="#284177"></path><path d="M105 0L60 75.9L146 73.9Z" fill="#4078c5" stroke="#284177"></path><path d="M808 48.9L785 115.9L819 115.4Z" fill="#344792" stroke="#284177"></path><path d="M0 376L0 457.7L6 438.7Z" fill="#313780" stroke="#284177"></path><path d="M6 438.7L0 457.7L25 448.7Z" fill="#2c276f" stroke="#284177"></path><path d="M82 -25.1L120 0L125 0Z" fill="#344792" stroke="#284177"></path><path d="M125 0L120 0L146 73.9Z" fill="#3857a3" stroke="#284177"></path><path d="M6 102.4L53 81.6L26 52.6Z" fill="#22064c" stroke="#284177"></path><path d="M60 75.9L53 81.6L111 134.7Z" fill="#499ae7" stroke="#284177"></path><path d="M900 346L892 354L900 350.9Z" fill="#4078c5" stroke="#284177"></path><path d="M867 394.4L892 354L825 324.1Z" fill="#4078c5" stroke="#284177"></path><path d="M868 269L881 205.3L807 247.3Z" fill="#4facf7" stroke="#284177"></path><path d="M432 616.1L790 617.1L598 600Z" fill="#313780" stroke="#284177"></path><path d="M751 600L790 617.1L798 538.1Z" fill="#22064c" stroke="#284177"></path><path d="M798 538.1L864 503.1L811 447.3Z" fill="#4489d6" stroke="#284177"></path><path d="M115 625.1L790 617.1L432 616.1Z" fill="#344792" stroke="#284177"></path><path d="M789 43.7L758 0L732 0Z" fill="#22064c" stroke="#284177"></path><path d="M732 0L777 -32.1L680 -15.1Z" fill="#4facf7" stroke="#284177"></path><path d="M900 236.1L881 205.3L868 269Z" fill="#313780" stroke="#284177"></path><path d="M0 457.7L9 503.6L36 484.4Z" fill="#4facf7" stroke="#284177"></path><path d="M873 537.4L864 503.1L798 538.1Z" fill="#4078c5" stroke="#284177"></path><path d="M0 167.6L-26 291L0 226.3Z" fill="#313780" stroke="#284177"></path><path d="M0 226.3L-26 291L0 265.1Z" fill="#4facf7" stroke="#284177"></path><path d="M0 265.1L-26 291L0 291.9Z" fill="#344792" stroke="#284177"></path><path d="M0 291.9L-26 291L0 364.6Z" fill="#4489d6" stroke="#284177"></path><path d="M0 364.6L-26 291L0 376Z" fill="#4078c5" stroke="#284177"></path><path d="M0 376L-26 291L0 457.7Z" fill="#3c67b4" stroke="#284177"></path><path d="M900 350.9L892 354L900 406.7Z" fill="#344792" stroke="#284177"></path><path d="M892 354L900 346L825 324.1Z" fill="#27185d" stroke="#284177"></path><path d="M900 406.7L892 354L867 394.4Z" fill="#4078c5" stroke="#284177"></path><path d="M0 135.4L0 167.6L111 134.7Z" fill="#22064c" stroke="#284177"></path><path d="M800 10.7L821 0L814 0Z" fill="#27185d" stroke="#284177"></path><path d="M859 65.6L808 48.9L819 115.4Z" fill="#499ae7" stroke="#284177"></path><path d="M789 43.7L785 0L758 0Z" fill="#3857a3" stroke="#284177"></path><path d="M900 346L900 285.3L825 324.1Z" fill="#2c276f" stroke="#284177"></path><path d="M82 -25.1L105 0L120 0Z" fill="#3857a3" stroke="#284177"></path><path d="M120 0L105 0L146 73.9Z" fill="#344792" stroke="#284177"></path><path d="M894 471.3L900 406.7L867 394.4Z" fill="#22064c" stroke="#284177"></path><path d="M82 -25.1L96 0L105 0Z" fill="#313780" stroke="#284177"></path><path d="M105 0L96 0L60 75.9Z" fill="#344792" stroke="#284177"></path><path d="M53 81.6L0 135.4L111 134.7Z" fill="#3c67b4" stroke="#284177"></path><path d="M900 285.3L900 236.1L868 269Z" fill="#344792" stroke="#284177"></path><path d="M859 65.6L819 115.4L900 123.6Z" fill="#4489d6" stroke="#284177"></path><path d="M-24 600L0 512.4L0 457.7Z" fill="#27185d" stroke="#284177"></path><path d="M0 457.7L0 512.4L9 503.6Z" fill="#4489d6" stroke="#284177"></path><path d="M9 503.6L0 538.3L92 554.3Z" fill="#4489d6" stroke="#284177"></path><path d="M75 582.3L0 613.1L115 625.1Z" fill="#22064c" stroke="#284177"></path><path d="M900 346L911 292.9L900 285.3Z" fill="#499ae7" stroke="#284177"></path><path d="M900 285.3L916 236.1L900 236.1Z" fill="#499ae7" stroke="#284177"></path><path d="M900 350.9L911 292.9L900 346Z" fill="#3c67b4" stroke="#284177"></path><path d="M900 406.7L911 292.9L900 350.9Z" fill="#27185d" stroke="#284177"></path><path d="M900 487.3L888 478.6L900 487.6Z" fill="#4facf7" stroke="#284177"></path><path d="M864 503.1L888 478.6L811 447.3Z" fill="#3c67b4" stroke="#284177"></path><path d="M6 102.4L0 135.4L53 81.6Z" fill="#27185d" stroke="#284177"></path><path d="M0 167.6L-30 78.7L-26 291Z" fill="#27185d" stroke="#284177"></path><path d="M800 10.7L789 43.7L808 48.9Z" fill="#2c276f" stroke="#284177"></path><path d="M800 10.7L785 0L789 43.7Z" fill="#4489d6" stroke="#284177"></path><path d="M758 0L777 -32.1L732 0Z" fill="#313780" stroke="#284177"></path><path d="M900 487.3L894 471.3L888 478.6Z" fill="#3c67b4" stroke="#284177"></path><path d="M888 478.6L894 471.3L811 447.3Z" fill="#27185d" stroke="#284177"></path><path d="M900 406.7L900 487.3L911 292.9Z" fill="#2c276f" stroke="#284177"></path><path d="M819 115.4L855 158.4L900 123.6Z" fill="#2c276f" stroke="#284177"></path><path d="M-24 600L0 538.3L0 512.4Z" fill="#3857a3" stroke="#284177"></path><path d="M0 512.4L0 538.3L9 503.6Z" fill="#4facf7" stroke="#284177"></path><path d="M878 600L873 537.4L798 538.1Z" fill="#3857a3" stroke="#284177"></path><path d="M0 97.7L6 102.4L26 52.6Z" fill="#3c67b4" stroke="#284177"></path><path d="M911 292.9L916 236.1L900 285.3Z" fill="#499ae7" stroke="#284177"></path><path d="M900 236.1L916 236.1L881 205.3Z" fill="#4078c5" stroke="#284177"></path><path d="M900 487.6L888 478.6L900 507.1Z" fill="#3857a3" stroke="#284177"></path><path d="M894 471.3L900 487.3L900 406.7Z" fill="#313780" stroke="#284177"></path><path d="M911 292.9L900 600L916 236.1Z" fill="#499ae7" stroke="#284177"></path><path d="M900 507.1L888 478.6L864 503.1Z" fill="#4489d6" stroke="#284177"></path><path d="M900 487.3L900 487.6L911 292.9Z" fill="#27185d" stroke="#284177"></path><path d="M26 52.6L53 81.6L60 75.9Z" fill="#344792" stroke="#284177"></path><path d="M6 102.4L0 97.7L0 135.4Z" fill="#3857a3" stroke="#284177"></path><path d="M0 135.4L-30 78.7L0 167.6Z" fill="#4078c5" stroke="#284177"></path><path d="M96 0L26 52.6L60 75.9Z" fill="#4078c5" stroke="#284177"></path><path d="M821 -29.1L777 -32.1L785 0Z" fill="#344792" stroke="#284177"></path><path d="M785 0L777 -32.1L758 0Z" fill="#2c276f" stroke="#284177"></path><path d="M680 -15.1L777 -32.1L588 -28.1Z" fill="#499ae7" stroke="#284177"></path><path d="M588 -28.1L777 -32.1L498 -30.1Z" fill="#22064c" stroke="#284177"></path><path d="M900 513.4L900 507.1L864 503.1Z" fill="#4facf7" stroke="#284177"></path><path d="M900 487.6L900 507.1L911 292.9Z" fill="#3857a3" stroke="#284177"></path><path d="M900 135.4L855 158.4L881 205.3Z" fill="#27185d" stroke="#284177"></path><path d="M800 10.7L814 0L785 0Z" fill="#27185d" stroke="#284177"></path><path d="M900 600L900 513.4L873 537.4Z" fill="#2c276f" stroke="#284177"></path><path d="M873 537.4L900 513.4L864 503.1Z" fill="#3c67b4" stroke="#284177"></path><path d="M900 507.1L900 513.4L911 292.9Z" fill="#4facf7" stroke="#284177"></path><path d="M498 -30.1L82 -25.1L236 0Z" fill="#3857a3" stroke="#284177"></path><path d="M96 0L82 -25.1L26 52.6Z" fill="#3c67b4" stroke="#284177"></path><path d="M821 0L800 10.7L808 48.9Z" fill="#22064c" stroke="#284177"></path><path d="M916 236.1L900 135.4L881 205.3Z" fill="#22064c" stroke="#284177"></path><path d="M858 35.7L821 0L808 48.9Z" fill="#4489d6" stroke="#284177"></path><path d="M814 0L821 -29.1L785 0Z" fill="#4489d6" stroke="#284177"></path><path d="M858 35.7L808 48.9L859 65.6Z" fill="#27185d" stroke="#284177"></path><path d="M916 236.1L900 123.6L900 135.4Z" fill="#313780" stroke="#284177"></path><path d="M900 135.4L900 123.6L855 158.4Z" fill="#2c276f" stroke="#284177"></path><path d="M900 57.9L858 35.7L859 65.6Z" fill="#2c276f" stroke="#284177"></path><path d="M-24 600L0 600L0 538.3Z" fill="#3857a3" stroke="#284177"></path><path d="M0 538.3L0 600L75 582.3Z" fill="#344792" stroke="#284177"></path><path d="M790 617.1L878 600L798 538.1Z" fill="#4078c5" stroke="#284177"></path><path d="M0 0L0 45.9L26 52.6Z" fill="#3857a3" stroke="#284177"></path><path d="M26 52.6L0 45.9L0 97.7Z" fill="#3857a3" stroke="#284177"></path><path d="M0 97.7L-30 78.7L0 135.4Z" fill="#344792" stroke="#284177"></path><path d="M-24 600L0 613.1L0 600Z" fill="#22064c" stroke="#284177"></path><path d="M0 600L0 613.1L75 582.3Z" fill="#499ae7" stroke="#284177"></path><path d="M900 0L821 -29.1L821 0Z" fill="#3c67b4" stroke="#284177"></path><path d="M821 0L821 -29.1L814 0Z" fill="#344792" stroke="#284177"></path><path d="M0 45.9L-30 78.7L0 97.7Z" fill="#3857a3" stroke="#284177"></path><path d="M-26 291L-24 600L0 457.7Z" fill="#4078c5" stroke="#284177"></path><path d="M-30 78.7L-24 600L-26 291Z" fill="#3857a3" stroke="#284177"></path><path d="M900 123.6L900 57.9L859 65.6Z" fill="#3857a3" stroke="#284177"></path><path d="M858 35.7L900 0L821 0Z" fill="#4078c5" stroke="#284177"></path><path d="M916 236.1L900 57.9L900 123.6Z" fill="#2c276f" stroke="#284177"></path><path d="M790 617.1L900 600L878 600Z" fill="#4489d6" stroke="#284177"></path><path d="M878 600L900 600L873 537.4Z" fill="#4078c5" stroke="#284177"></path><path d="M900 513.4L900 600L911 292.9Z" fill="#3c67b4" stroke="#284177"></path><path d="M0 45.9L-8 -11.1L-30 78.7Z" fill="#4489d6" stroke="#284177"></path><path d="M82 -25.1L0 0L26 52.6Z" fill="#344792" stroke="#284177"></path><path d="M916 236.1L900 28.7L900 57.9Z" fill="#3c67b4" stroke="#284177"></path><path d="M900 57.9L900 28.7L858 35.7Z" fill="#3c67b4" stroke="#284177"></path><path d="M82 -25.1L-8 -11.1L0 0Z" fill="#22064c" stroke="#284177"></path><path d="M0 0L-8 -11.1L0 45.9Z" fill="#22064c" stroke="#284177"></path><path d="M916 236.1L900 0L900 28.7Z" fill="#22064c" stroke="#284177"></path><path d="M900 28.7L900 0L858 35.7Z" fill="#2c276f" stroke="#284177"></path></g></svg>